<svg width="300" height="300" viewBox="0 0 300 300" fill="none" xmlns="http://www.w3.org/2000/svg">
<g clip-path="url(#clip0)">
<rect width="300" height="300" fill="#FDFFF1"/>
<path d="M42.7864 69.688C29.1087 67.2043 19.0474 67.3514 15.7917 74.1079C12.536 80.8644 30.4064 79.4851 39.8425 82.478C53.997 86.9673 60.7371 89.1051 75.3843 96.7181C67.1818 86.3273 52.0014 71.3613 42.7864 69.688Z" fill="#009556"/>
<path d="M39.9987 49.2883C31.5804 47.2404 25.4492 47.0243 23.6734 51.3394C21.8977 55.6546 32.7529 55.3077 38.6004 57.5567C47.3717 60.9303 51.5484 62.5368 60.7172 67.9674C55.3924 60.9212 45.6704 50.668 39.9987 49.2883Z" fill="#009556"/>
<path d="M39.7138 32.6791C34.0171 30.969 29.9064 30.6312 28.8472 33.6491C27.788 36.667 35.0441 36.7458 39.0258 38.5219C44.9985 41.1861 47.8426 42.4548 54.1431 46.5949C50.3674 41.4203 43.5518 33.8312 39.7138 32.6791Z" fill="#009556"/>
<path d="M80.0778 61.7344C87.8989 50.4449 95.0925 43.3192 102.316 45.0194C109.539 46.7195 95.9463 58.7083 91.4841 67.2608C84.7908 80.0896 81.6036 86.1985 76.8425 101.246C75.0375 89.1604 74.8085 69.3403 80.0778 61.7344Z" fill="#009556"/>
<path d="M67.265 44.8325C73.6347 36.1529 79.4145 30.7543 85.0042 32.3588C90.5938 33.9632 79.7081 42.9933 76.023 49.6204C70.4953 59.5611 67.8631 64.2947 63.788 76.0638C62.6731 66.4122 62.9736 50.6801 67.265 44.8325Z" fill="#009556"/>
<path d="M57.1013 30.9237C60.2053 24.9842 63.0941 21.5305 66.0867 23.5236C69.0793 25.5168 63.6054 31.1327 61.8564 35.8235C59.2329 42.8598 57.9837 46.2104 56.179 54.8676C55.3101 47.1784 55.0101 34.9252 57.1013 30.9237Z" fill="#009556"/>
<path d="M48.1124 16.4929C48.7407 13.0039 50.0037 8.19095 53.5876 8.58584C55.6096 9.22717 56.4719 12.4203 55.2801 17.2827C53.4924 24.5763 51.1576 28.3387 50.3716 37.1469C48.6147 29.6109 47.3122 20.9365 48.1124 16.4929Z" fill="#009556"/>
<path d="M61.0127 72.8829C59.1717 69.3318 50.7731 45.526 48.9825 30.1217C51.1793 37.6185 58.8762 64.4162 62.7883 71.9625C66.3294 78.7933 78.8639 100.799 78.4364 102.148C78.0088 103.496 77.1047 102.838 77.1047 102.838C71.8119 92.6282 62.8536 76.4341 61.0127 72.8829Z" fill="#009556"/>
<path d="M254.889 72.0609C268.567 74.5446 278.628 74.3975 281.884 67.641C285.139 60.8845 267.269 62.2638 257.833 59.2709C243.678 54.7816 236.938 52.6438 222.291 45.0308C230.494 55.4215 245.674 70.3876 254.889 72.0609Z" fill="#65E501"/>
<path d="M257.677 92.4606C266.095 94.5085 272.226 94.7246 274.002 90.4095C275.778 86.0943 264.923 86.4412 259.075 84.1922C250.304 80.8186 246.127 79.2121 236.958 73.7815C242.283 80.8277 252.005 91.0809 257.677 92.4606Z" fill="#65E501"/>
<path d="M257.962 109.07C263.658 110.78 267.769 111.118 268.828 108.1C269.887 105.082 262.631 105.003 258.65 103.227C252.677 100.563 249.833 99.2941 243.532 95.154C247.308 100.329 254.124 107.918 257.962 109.07Z" fill="#65E501"/>
<path d="M217.598 80.0145C209.776 91.304 202.583 98.4297 195.36 96.7295C188.136 95.0294 201.729 83.0406 206.191 74.4881C212.885 61.6593 216.072 55.5504 220.833 40.5031C222.638 52.5884 222.867 72.4085 217.598 80.0145Z" fill="#65E501"/>
<path d="M230.41 96.9164C224.041 105.596 218.261 110.995 212.671 109.39C207.082 107.786 217.967 98.7556 221.652 92.1285C227.18 82.1878 229.812 77.4542 233.887 65.6851C235.002 75.3367 234.702 91.0688 230.41 96.9164Z" fill="#65E501"/>
<path d="M240.574 110.825C237.47 116.765 234.581 120.218 231.589 118.225C228.596 116.232 234.07 110.616 235.819 105.925C238.442 98.8891 239.692 95.5385 241.496 86.8813C242.365 94.5705 242.665 106.824 240.574 110.825Z" fill="#65E501"/>
<path d="M249.563 125.256C248.935 128.745 247.672 133.558 244.088 133.163C242.066 132.522 241.204 129.329 242.395 124.466C244.183 117.173 246.518 113.41 247.304 104.602C249.061 112.138 250.363 120.812 249.563 125.256Z" fill="#65E501"/>
<path d="M236.663 68.8659C238.504 72.4171 246.902 96.2229 248.693 111.627C246.496 104.13 238.799 77.3327 234.887 69.7864C231.346 62.9556 218.812 40.9494 219.239 39.6014C219.667 38.2533 220.571 38.911 220.571 38.911C225.864 49.1207 234.822 65.3148 236.663 68.8659Z" fill="#65E501"/>
<path d="M33.4191 274.758C27.8609 273.748 23.7722 273.808 22.4492 276.554C21.1262 279.299 28.3882 278.739 32.2228 279.955C37.9748 281.779 40.7138 282.648 46.6661 285.742C43.3328 281.519 37.1639 275.438 33.4191 274.758Z" fill="#65E501"/>
<path d="M32.2863 266.468C28.8653 265.635 26.3737 265.548 25.6521 267.301C24.9305 269.055 29.3418 268.914 31.718 269.828C35.2825 271.199 36.9798 271.852 40.7057 274.058C38.5419 271.195 34.5911 267.028 32.2863 266.468Z" fill="#65E501"/>
<path d="M32.1705 259.718C29.8555 259.023 28.1851 258.886 27.7546 260.112C27.3242 261.339 30.2728 261.371 31.8909 262.093C34.3181 263.175 35.4738 263.691 38.0342 265.373C36.4998 263.27 33.7302 260.186 32.1705 259.718Z" fill="#65E501"/>
<path d="M48.5733 271.525C51.7517 266.938 54.675 264.042 57.6103 264.733C60.5457 265.424 55.0219 270.296 53.2086 273.771C50.4886 278.985 49.1934 281.467 47.2586 287.582C46.5251 282.671 46.4321 274.616 48.5733 271.525Z" fill="#65E501"/>
<path d="M43.3666 264.657C45.955 261.13 48.3038 258.936 50.5753 259.588C52.8468 260.24 48.4231 263.91 46.9256 266.603C44.6793 270.642 43.6096 272.566 41.9536 277.349C41.5005 273.426 41.6227 267.033 43.3666 264.657Z" fill="#65E501"/>
<path d="M39.2363 259.005C40.4977 256.591 41.6716 255.188 42.8877 255.998C44.1039 256.808 41.8794 259.09 41.1687 260.996C40.1026 263.855 39.5949 265.217 38.8615 268.735C38.5084 265.61 38.3865 260.631 39.2363 259.005Z" fill="#65E501"/>
<path d="M35.5835 253.141C35.8388 251.723 36.3521 249.767 37.8084 249.927C38.6302 250.188 38.9805 251.486 38.4962 253.461C37.7698 256.425 36.821 257.954 36.5016 261.534C35.7876 258.471 35.2583 254.946 35.5835 253.141Z" fill="#65E501"/>
<path d="M40.8258 276.056C40.0777 274.613 36.6647 264.939 35.9371 258.679C36.8298 261.725 39.9576 272.615 41.5474 275.682C42.9864 278.458 48.0801 287.4 47.9063 287.948C47.7326 288.496 47.3652 288.229 47.3652 288.229C45.2143 284.08 41.5739 277.499 40.8258 276.056Z" fill="#65E501"/>
<path d="M98.7864 257.061C85.1087 259.545 75.0474 259.398 71.7917 252.641C68.536 245.885 86.4064 247.264 95.8425 244.271C109.997 239.782 116.737 237.644 131.384 230.031C123.182 240.422 108.001 255.388 98.7864 257.061Z" fill="#009556"/>
<path d="M95.9987 277.461C87.5804 279.508 81.4492 279.725 79.6734 275.409C77.8977 271.094 88.7529 271.441 94.6004 269.192C103.372 265.819 107.548 264.212 116.717 258.782C111.392 265.828 101.67 276.081 95.9987 277.461Z" fill="#009556"/>
<path d="M95.7138 294.07C90.0171 295.78 85.9064 296.118 84.8472 293.1C83.788 290.082 91.0441 290.003 95.0258 288.227C100.999 285.563 103.843 284.294 110.143 280.154C106.367 285.329 99.5518 292.918 95.7138 294.07Z" fill="#009556"/>
<path d="M136.078 265.015C143.899 276.304 151.093 283.43 158.316 281.73C165.539 280.029 151.946 268.041 147.484 259.488C140.791 246.659 137.604 240.55 132.842 225.503C131.038 237.588 130.808 257.409 136.078 265.015Z" fill="#009556"/>
<path d="M123.265 281.916C129.635 290.596 135.414 295.995 141.004 294.39C146.594 292.786 135.708 283.756 132.023 277.129C126.495 267.188 123.863 262.454 119.788 250.685C118.673 260.337 118.974 276.069 123.265 281.916Z" fill="#009556"/>
<path d="M113.101 295.825C116.205 301.765 119.094 305.218 122.087 303.225C125.079 301.232 119.605 295.616 117.856 290.925C115.233 283.889 113.984 280.538 112.179 271.881C111.31 279.571 111.01 291.824 113.101 295.825Z" fill="#009556"/>
<path d="M104.112 310.256C104.741 313.745 106.004 318.558 109.588 318.163C111.61 317.522 112.472 314.329 111.28 309.466C109.492 302.173 107.158 298.41 106.372 289.602C104.615 297.138 103.312 305.812 104.112 310.256Z" fill="#009556"/>
<path d="M117.013 253.866C115.172 257.417 106.773 281.223 104.983 296.627C107.179 289.13 114.876 262.333 118.788 254.786C122.329 247.956 134.864 225.949 134.436 224.601C134.009 223.253 133.105 223.911 133.105 223.911C127.812 234.121 118.854 250.315 117.013 253.866Z" fill="#009556"/>
<path d="M95.7138 -5.92697C90.0171 -4.21689 85.9064 -3.8791 84.8472 -6.89701C83.788 -9.91491 91.0441 -9.99369 95.0258 -11.7698C100.999 -14.434 103.843 -15.7027 110.143 -19.8428C106.367 -14.6682 99.5518 -7.07908 95.7138 -5.92697Z" fill="#009556"/>
<path d="M113.101 -4.17156C116.205 1.76791 119.094 5.22163 122.087 3.22845C125.079 1.23528 119.605 -4.38063 117.856 -9.07144C115.233 -16.1077 113.984 -19.4583 112.179 -28.1155C111.31 -20.4263 111.01 -8.17311 113.101 -4.17156Z" fill="#009556"/>
<path d="M104.112 10.2592C104.741 13.7482 106.004 18.5611 109.588 18.1663C111.61 17.5249 112.472 14.3318 111.28 9.46941C109.492 2.17581 107.158 -1.58656 106.372 -10.3948C104.615 -2.8588 103.312 5.8156 104.112 10.2592Z" fill="#009556"/>
<path d="M172.419 166.825C183.364 163.005 190.991 162.086 192.019 168.214C193.047 174.342 179.74 174.903 171.915 178.764C160.177 184.554 154.587 187.311 141.804 196.145C150.278 185.33 165.046 169.398 172.419 166.825Z" fill="#009556"/>
<path d="M178.92 146.994C185.767 144.146 190.481 143.293 190.907 147.239C191.332 151.184 183.143 151.995 178.21 154.765C170.809 158.92 167.284 160.899 159.139 167.065C164.705 159.756 174.306 148.913 178.92 146.994Z" fill="#009556"/>
<path d="M182.702 131.057C187.405 128.819 190.607 128.063 190.765 130.841C190.924 133.62 185.383 134.46 181.971 136.58C176.853 139.761 174.416 141.275 168.731 145.904C172.716 140.551 179.533 132.565 182.702 131.057Z" fill="#009556"/>
<path d="M145.74 163.135C142.21 153.147 138.263 147.08 132.4 149.469C126.536 151.858 134.31 161.908 135.871 169.629C138.213 181.21 139.328 186.725 139.722 200.635C143.69 188.87 148.118 169.864 145.74 163.135Z" fill="#009556"/>
<path d="M159.121 145.598C156.135 137.957 152.894 133.395 148.295 135.52C143.696 137.646 150.044 145.147 151.427 151.106C153.501 160.044 154.488 164.301 155.064 175.143C157.984 165.782 161.132 150.747 159.121 145.598Z" fill="#009556"/>
<path d="M169.843 131.207C168.755 125.846 167.297 122.842 164.592 125.066C161.886 127.29 164.847 132.092 165.172 136.401C165.658 142.863 165.89 145.94 165.406 154.041C167.718 146.586 170.576 134.819 169.843 131.207Z" fill="#009556"/>
<path d="M179.783 116.44C180.053 113.164 180.125 108.688 177.312 109.444C175.635 110.271 174.294 113.42 174.157 117.951C173.952 124.748 174.922 128.105 173.63 136.458C176.585 129.056 179.438 120.611 179.783 116.44Z" fill="#009556"/>
<path d="M157.86 171.804C160.023 168.209 171.526 144.525 176.195 129.584C172.914 136.995 161.303 163.47 156.706 171.11C152.544 178.025 138.279 200.42 138.315 201.666C138.351 202.912 139.181 202.187 139.181 202.187C145.401 191.852 155.696 175.399 157.86 171.804Z" fill="#009556"/>
<path d="M-5.18622 14.7059C-0.891264 12.0151 5.56328 28.8332 8.25369 37.5787C1.61658 31.4036 -10.3634 18.184 -5.18622 14.7059Z" fill="#74CE01" fill-opacity="0.7"/>
<path d="M-5.22513 -2.7537C-0.930173 -5.4445 5.52437 11.3736 8.21478 20.1191C1.57767 13.944 -10.4023 0.72436 -5.22513 -2.7537Z" fill="#74CE01" fill-opacity="0.7"/>
<path d="M27.2549 24.7119C30.9494 28.8395 15.5765 35.9171 7.4283 38.9399C12.0836 32.1282 22.5662 19.7463 27.2549 24.7119Z" fill="#74CE01" fill-opacity="0.7"/>
<path d="M25.7907 13.4155C29.4852 17.5431 14.1124 24.6206 5.96416 27.6435C10.6194 20.8318 21.1021 8.44988 25.7907 13.4155Z" fill="#74CE01" fill-opacity="0.7"/>
<path d="M19.5672 -9.19565C24.5119 -6.79408 14.0801 6.26019 8.24621 12.4871C9.45275 4.0976 13.4061 -11.9843 19.5672 -9.19565Z" fill="#74CE01" fill-opacity="0.7"/>
<path d="M8.27328 41.0147C7.33394 36.9856 6.74888 30.1233 7.03384 26.3391C7.26249 23.3027 7.68569 13.5993 9.4624 10.9317" stroke="#74CE01" stroke-opacity="0.7" stroke-width="2"/>
<path d="M294.81 14.7059C299.105 12.0151 305.56 28.8332 308.25 37.5787C301.613 31.4036 289.633 18.184 294.81 14.7059Z" fill="#74CE01" fill-opacity="0.7"/>
<path d="M294.772 -2.7537C299.067 -5.4445 305.521 11.3736 308.211 20.1191C301.574 13.944 289.594 0.72436 294.772 -2.7537Z" fill="#74CE01" fill-opacity="0.7"/>
<path d="M319.564 -9.19565C324.509 -6.79408 314.077 6.26019 308.243 12.4871C309.449 4.0976 313.403 -11.9843 319.564 -9.19565Z" fill="#74CE01" fill-opacity="0.7"/>
<path d="M308.27 41.0147C307.331 36.9856 306.746 30.1233 307.031 26.3391C307.259 23.3027 307.682 13.5993 309.459 10.9317" stroke="#74CE01" stroke-opacity="0.7" stroke-width="2"/>
<path d="M-5.22513 297.246C-0.930173 294.555 5.52437 311.374 8.21478 320.119C1.57767 313.944 -10.4023 300.724 -5.22513 297.246Z" fill="#74CE01" fill-opacity="0.7"/>
<path d="M19.5672 290.804C24.5119 293.206 14.0801 306.26 8.24621 312.487C9.45275 304.098 13.4061 288.016 19.5672 290.804Z" fill="#74CE01" fill-opacity="0.7"/>
<path d="M151.554 45.5933C146.892 40.772 137.461 59.1034 133.328 68.8718C141.733 63.6536 157.145 51.6924 151.554 45.5933Z" fill="#74CE01" fill-opacity="0.7"/>
<path d="M153.629 24.2015C148.968 19.3802 139.537 37.7116 135.404 47.4799C143.809 42.2618 159.221 30.3006 153.629 24.2015Z" fill="#74CE01" fill-opacity="0.7"/>
<path d="M112.818 46.3621C108.06 50.1131 125.041 64.2391 134.126 70.8332C129.527 60.832 118.826 41.9361 112.818 46.3621Z" fill="#74CE01" fill-opacity="0.7"/>
<path d="M115.828 33.0316C111.069 36.7826 128.05 50.9085 137.135 57.5027C132.536 47.5015 121.835 28.6056 115.828 33.0316Z" fill="#74CE01" fill-opacity="0.7"/>
<path d="M125.665 7.51609C119.659 8.70783 130.222 28.4099 136.255 38.112C135.833 27.3987 133.125 6.28095 125.665 7.51609Z" fill="#74CE01" fill-opacity="0.7"/>
<path d="M132.906 73.0774C134.463 68.4707 135.938 60.2648 136.048 55.5243C136.136 51.7206 136.775 39.6742 135.027 35.774" stroke="#74CE01" stroke-opacity="0.7" stroke-width="2"/>
<path d="M253.58 153.534C248.982 154.976 257.723 166.936 262.668 172.736C262.021 165.656 259.298 151.905 253.58 153.534Z" fill="#74CE01" fill-opacity="0.7"/>
<path d="M240.506 145.315C235.908 146.757 244.649 158.717 249.593 164.516C248.947 157.437 246.224 143.686 240.506 145.315Z" fill="#74CE01" fill-opacity="0.7"/>
<path d="M241.605 178.665C242.483 182.93 257.024 176.568 264.184 172.855C256.279 172.59 240.696 173.381 241.605 178.665Z" fill="#74CE01" fill-opacity="0.7"/>
<path d="M234.01 172.441C234.888 176.706 249.429 170.344 256.59 166.63C248.684 166.365 233.101 167.157 234.01 172.441Z" fill="#74CE01" fill-opacity="0.7"/>
<path d="M220.785 157.908C219.618 162.15 235.675 161.706 243.849 160.954C236.831 157.776 222.393 152.718 220.785 157.908Z" fill="#74CE01" fill-opacity="0.7"/>
<path d="M265.233 174.361C262.775 171.878 257.979 168.288 254.969 166.692C252.554 165.411 245.02 161.123 241.952 160.99" stroke="#74CE01" stroke-opacity="0.7" stroke-width="2"/>
<path d="M75.7146 220.362C77.6202 213.932 57.0207 214.736 46.4827 215.941C55.1597 220.693 73.1537 228.23 75.7146 220.362Z" fill="#74CE01" fill-opacity="0.7"/>
<path d="M95.3615 211.649C97.2671 205.219 76.6676 206.023 66.1296 207.228C74.8066 211.98 92.8006 219.517 95.3615 211.649Z" fill="#74CE01" fill-opacity="0.7"/>
<path d="M55.9958 187.013C50.3895 184.714 46.4407 206.446 45.1671 217.6C51.6135 208.677 62.8041 190.067 55.9958 187.013Z" fill="#74CE01" fill-opacity="0.7"/>
<path d="M69.0829 183.077C63.4766 180.778 59.5278 202.511 58.2542 213.665C64.7005 204.741 75.8912 186.131 69.0829 183.077Z" fill="#74CE01" fill-opacity="0.7"/>
<path d="M96.1375 179.095C92.1463 174.451 80.1862 193.338 74.705 203.362C83.8259 197.726 100.882 184.983 96.1375 179.095Z" fill="#74CE01" fill-opacity="0.7"/>
<path d="M42.6131 217.641C47.3898 216.731 55.2604 213.98 59.4422 211.745C62.7975 209.951 73.6005 204.583 76.1371 201.143" stroke="#74CE01" stroke-opacity="0.7" stroke-width="2"/>
<circle cx="37.9252" cy="101.651" r="1" transform="rotate(-33.277 37.9252 101.651)" fill="#EF8EFF"/>
<path d="M49.8923 134.465C46.1951 127.921 40.1767 109.942 38.0688 100.959C41.7007 110.138 43.3269 119.636 51.695 134.478C54.2789 139.061 67.3456 156.503 78.3713 166.012C78.367 166.613 79.8867 167.41 77.6659 167.671C76.6728 167.788 54.5649 142.737 49.8923 134.465Z" fill="#74CE01"/>
<circle cx="44.5614" cy="104.472" r="1" transform="rotate(-33.277 44.5614 104.472)" fill="#EF8EFF"/>
<circle cx="47.2788" cy="112.258" r="1" transform="rotate(-33.277 47.2788 112.258)" fill="#EF8EFF"/>
<circle cx="36.0391" cy="116.425" r="1" transform="rotate(-9.66906 36.0391 116.425)" fill="#EF8EFF"/>
<path d="M35.2474 107.595C36.9935 109.04 40.6244 111.96 41.1783 112.075C41.7321 112.19 43.8473 107.333 44.8357 104.89" stroke="#74CE01" stroke-width="0.5"/>
<path d="M36.5671 116.896C38.3133 118.341 43.1981 120.438 43.752 120.553C44.3059 120.668 46.1468 115.393 47.1351 112.95" stroke="#74CE01" stroke-width="0.5"/>
<path d="M39.1279 127.177C40.874 128.622 47.6923 131.842 48.2462 131.957C48.8001 132.072 51.3463 125.138 52.3347 122.695" stroke="#74CE01" stroke-width="0.5"/>
<path d="M44.1837 137.614C46.3785 140.958 55.4486 142.759 56.0103 142.692C56.572 142.625 58.0699 135.079 57.1162 132.715" stroke="#74CE01" stroke-width="0.5"/>
<path d="M51.0902 147.504C53.6179 150.604 62.8254 151.461 63.3772 151.336C63.929 151.212 64.6412 143.551 63.4489 141.298" stroke="#74CE01" stroke-width="0.5"/>
<path d="M59.573 157.417C62.6893 159.925 71.0744 160.016 71.5883 159.779C72.1022 159.543 72.9246 149.89 71.2904 147.933" stroke="#74CE01" stroke-width="0.5"/>
<circle cx="34.9937" cy="107.542" r="1" transform="rotate(-9.66906 34.9937 107.542)" fill="#EF8EFF"/>
<circle cx="52.081" cy="122.643" r="1" transform="rotate(-9.66906 52.081 122.643)" fill="#EF8EFF"/>
<circle cx="39.0179" cy="126.432" r="1" transform="rotate(-9.66906 39.0179 126.432)" fill="#EF8EFF"/>
<circle cx="43.93" cy="137.561" r="1" transform="rotate(-9.66906 43.93 137.561)" fill="#EF8EFF"/>
<circle cx="57.2805" cy="132.388" r="1" transform="rotate(-9.66906 57.2805 132.388)" fill="#EF8EFF"/>
<circle cx="63.6034" cy="140.199" r="1" transform="rotate(-9.66906 63.6034 140.199)" fill="#EF8EFF"/>
<circle cx="51.899" cy="147.881" r="1" transform="rotate(-9.66906 51.899 147.881)" fill="#EF8EFF"/>
<circle cx="71.311" cy="148.298" r="1" transform="rotate(-9.66906 71.311 148.298)" fill="#EF8EFF"/>
<circle cx="59.3192" cy="157.365" r="1" transform="rotate(-9.66906 59.3192 157.365)" fill="#EF8EFF"/>
<path d="M206.892 294.621C203.195 301.166 197.177 319.145 195.069 328.128C198.701 318.949 200.327 309.451 208.695 294.608C211.279 290.025 224.346 272.584 235.371 263.075C235.367 262.474 236.887 261.677 234.666 261.416C233.673 261.299 211.565 286.35 206.892 294.621Z" fill="#74CE01"/>
<path d="M196.128 301.91C197.874 300.465 204.692 297.244 205.246 297.129C205.8 297.014 208.346 303.949 209.335 306.391" stroke="#74CE01" stroke-width="0.5"/>
<path d="M201.184 291.473C203.378 288.129 212.449 286.328 213.01 286.395C213.572 286.462 215.07 294.008 214.116 296.372" stroke="#74CE01" stroke-width="0.5"/>
<path d="M208.09 281.583C210.618 278.483 219.825 277.626 220.377 277.751C220.929 277.875 221.641 285.535 220.449 287.789" stroke="#74CE01" stroke-width="0.5"/>
<path d="M216.573 271.67C219.689 269.162 228.074 269.071 228.588 269.307C229.102 269.544 229.925 279.197 228.29 281.154" stroke="#74CE01" stroke-width="0.5"/>
<circle r="1" transform="matrix(0.985794 0.167957 0.167957 -0.985794 200.93 291.526)" fill="#EF8EFF"/>
<circle r="1" transform="matrix(0.985794 0.167957 0.167957 -0.985794 214.28 296.699)" fill="#EF8EFF"/>
<circle r="1" transform="matrix(0.985794 0.167957 0.167957 -0.985794 220.603 288.887)" fill="#EF8EFF"/>
<circle r="1" transform="matrix(0.985794 0.167957 0.167957 -0.985794 208.899 281.206)" fill="#EF8EFF"/>
<circle r="1" transform="matrix(0.985794 0.167957 0.167957 -0.985794 228.311 280.789)" fill="#EF8EFF"/>
<circle r="1" transform="matrix(0.985794 0.167957 0.167957 -0.985794 216.319 271.722)" fill="#EF8EFF"/>
<circle r="1" transform="matrix(0.836028 0.548687 0.548687 -0.836028 194.925 27.4344)" fill="#EF8EFF"/>
<path d="M206.892 -5.38009C203.195 1.16446 197.177 19.1436 195.069 28.1267C198.701 18.9477 200.327 9.4492 208.695 -5.39308C211.279 -9.97605 224.346 -27.4172 235.371 -36.9268C235.367 -37.5277 236.887 -38.3245 234.666 -38.5859C233.673 -38.7027 211.565 -13.6515 206.892 -5.38009Z" fill="#74CE01"/>
<circle r="1" transform="matrix(0.836028 0.548687 0.548687 -0.836028 201.561 24.6129)" fill="#EF8EFF"/>
<circle r="1" transform="matrix(0.836028 0.548687 0.548687 -0.836028 204.279 16.8273)" fill="#EF8EFF"/>
<circle r="1" transform="matrix(0.985794 0.167957 0.167957 -0.985794 193.039 12.6602)" fill="#EF8EFF"/>
<path d="M192.247 21.4905C193.994 20.0449 197.624 17.1249 198.178 17.01C198.732 16.8951 200.847 21.7521 201.836 24.1949" stroke="#74CE01" stroke-width="0.5"/>
<path d="M193.567 12.1895C195.313 10.7439 200.198 8.64699 200.752 8.53205C201.306 8.41711 203.147 13.6921 204.135 16.135" stroke="#74CE01" stroke-width="0.5"/>
<path d="M196.128 1.90881C197.874 0.46321 204.692 -2.75707 205.246 -2.87201C205.8 -2.98694 208.346 3.94712 209.335 6.38999" stroke="#74CE01" stroke-width="0.5"/>
<path d="M201.184 -8.52855C203.378 -11.8727 212.449 -13.6739 213.01 -13.6069C213.572 -13.5398 215.07 -5.99376 214.116 -3.62935" stroke="#74CE01" stroke-width="0.5"/>
<circle r="1" transform="matrix(0.985794 0.167957 0.167957 -0.985794 191.994 21.5431)" fill="#EF8EFF"/>
<circle r="1" transform="matrix(0.985794 0.167957 0.167957 -0.985794 209.081 6.44265)" fill="#EF8EFF"/>
<circle r="1" transform="matrix(0.985794 0.167957 0.167957 -0.985794 196.018 2.65383)" fill="#EF8EFF"/>
<ellipse rx="1.04852" ry="0.790931" transform="matrix(-0.94735 -0.3202 -0.3202 0.94735 10.682 208.472)" fill="#EF8EFF"/>
<path d="M10.0178 236.633C11.4206 230.846 11.2626 215.486 10.312 207.929C9.85045 215.844 11.4398 223.756 8.27457 236.879C7.29722 240.931 0.443326 256.774 -7.07552 265.921C-6.87105 266.408 -8.07866 267.252 -5.8388 267.174C-4.83709 267.139 8.24489 243.948 10.0178 236.633Z" fill="#74CE01"/>
<ellipse rx="1.04852" ry="0.790931" transform="matrix(-0.94735 -0.3202 -0.3202 0.94735 5.18922 211.625)" fill="#EF8EFF"/>
<ellipse rx="1.04852" ry="0.790931" transform="matrix(-0.94735 -0.3202 -0.3202 0.94735 5.14979 218.29)" fill="#EF8EFF"/>
<ellipse rx="1.01163" ry="0.837594" transform="matrix(-0.999972 -0.00747883 0.197873 0.980228 17.4345 220.202)" fill="#EF8EFF"/>
<path d="M15.2589 212.941C14.0479 214.34 11.5014 217.181 11.0028 217.347C10.5041 217.512 6.83489 213.851 5.06259 211.999" stroke="#74CE01" stroke-width="0.5"/>
<path d="M17.0794 220.653C15.8685 222.052 11.832 224.389 11.3334 224.555C10.8348 224.72 7.29213 220.684 5.51984 218.833" stroke="#74CE01" stroke-width="0.5"/>
<path d="M18.0235 229.321C16.8126 230.72 11.2762 234.22 10.7776 234.386C10.279 234.551 5.49965 229.262 3.72735 227.411" stroke="#74CE01" stroke-width="0.5"/>
<path d="M16.601 238.441C15.588 241.438 7.39574 244.082 6.82889 244.1C6.26203 244.119 2.29499 238.198 2.43147 236.157" stroke="#74CE01" stroke-width="0.5"/>
<path d="M13.202 247.359C11.785 250.202 3.14485 252.098 2.56842 252.069C1.99199 252.04 -1.25153 245.923 -0.846806 243.94" stroke="#74CE01" stroke-width="0.5"/>
<path d="M8.28295 256.502C6.09773 258.941 -2.00044 260.109 -2.57742 259.984C-3.1544 259.859 -7.16897 252.141 -6.23688 250.342" stroke="#74CE01" stroke-width="0.5"/>
<ellipse rx="1.01163" ry="0.837594" transform="matrix(-0.999972 -0.00747883 0.197873 0.980228 15.4872 212.865)" fill="#EF8EFF"/>
<ellipse rx="1.01163" ry="0.837594" transform="matrix(-0.999972 -0.00747883 0.197873 0.980228 3.95574 227.335)" fill="#EF8EFF"/>
<ellipse rx="1.01163" ry="0.837594" transform="matrix(-0.999972 -0.00747883 0.197873 0.980228 17.8818 228.702)" fill="#EF8EFF"/>
<ellipse rx="1.01163" ry="0.837594" transform="matrix(-0.999972 -0.00747883 0.197873 0.980228 16.8294 238.365)" fill="#EF8EFF"/>
<ellipse rx="1.01163" ry="0.837594" transform="matrix(-0.999972 -0.00747883 0.197873 0.980228 2.16323 235.913)" fill="#EF8EFF"/>
<ellipse rx="1.01163" ry="0.837594" transform="matrix(-0.999972 -0.00747883 0.197873 0.980228 12.5437 247.77)" fill="#EF8EFF"/>
<ellipse rx="1.01163" ry="0.837594" transform="matrix(-0.999972 -0.00747883 0.197873 0.980228 8.51137 256.426)" fill="#EF8EFF"/>
<path d="M310.019 236.633C311.422 230.846 311.264 215.486 310.314 207.929C309.852 215.844 311.441 223.756 308.276 236.879C307.299 240.931 300.445 256.774 292.926 265.921C293.131 266.408 291.923 267.252 294.163 267.174C295.165 267.139 308.247 243.948 310.019 236.633Z" fill="#74CE01"/>
<path d="M316.603 238.441C315.59 241.438 307.397 244.082 306.831 244.1C306.264 244.119 302.297 238.198 302.433 236.157" stroke="#74CE01" stroke-width="0.5"/>
<path d="M313.204 247.359C311.787 250.202 303.146 252.098 302.57 252.069C301.994 252.04 298.75 245.923 299.155 243.94" stroke="#74CE01" stroke-width="0.5"/>
<path d="M308.285 256.502C306.099 258.941 298.001 260.109 297.424 259.984C296.847 259.859 292.833 252.141 293.765 250.342" stroke="#74CE01" stroke-width="0.5"/>
<ellipse rx="1.01163" ry="0.837594" transform="matrix(-0.999972 -0.00747883 0.197873 0.980228 298.639 243.07)" fill="#EF8EFF"/>
<ellipse rx="1.01163" ry="0.837594" transform="matrix(-0.999972 -0.00747883 0.197873 0.980228 293.867 250.641)" fill="#EF8EFF"/>
<ellipse rx="0.743781" ry="0.5103" transform="matrix(-0.569557 -0.821952 -0.821952 0.569557 179.611 201.427)" fill="#EF8EFF"/>
<path d="M168.739 216.2C171.673 213.714 177.316 205.431 179.609 200.976C176.402 205.008 174.329 209.931 167.685 215.573C165.633 217.316 155.936 222.81 148.369 224.433C148.301 224.782 147.319 224.709 148.585 225.641C149.152 226.058 165.031 219.341 168.739 216.2Z" fill="#74CE01"/>
<ellipse rx="0.743781" ry="0.5103" transform="matrix(-0.569557 -0.821952 -0.821952 0.569557 175.4 200.726)" fill="#EF8EFF"/>
<ellipse rx="0.743781" ry="0.5103" transform="matrix(-0.569557 -0.821952 -0.821952 0.569557 172.892 204.273)" fill="#EF8EFF"/>
<ellipse rx="0.711512" ry="0.554406" transform="matrix(-0.781641 -0.623729 -0.387237 0.92198 178.967 210.636)" fill="#EF8EFF"/>
<path d="M180.473 205.807C179.282 206.029 176.815 206.441 176.478 206.313C176.141 206.185 175.479 202.631 175.191 200.871" stroke="#74CE01" stroke-width="0.5"/>
<path d="M178.603 210.723C177.411 210.945 174.309 210.44 173.972 210.312C173.635 210.184 173.183 206.485 172.894 204.724" stroke="#74CE01" stroke-width="0.5"/>
<path d="M175.891 215.769C174.7 215.991 170.335 215.456 169.998 215.328C169.661 215.2 168.993 210.293 168.704 208.533" stroke="#74CE01" stroke-width="0.5"/>
<path d="M171.703 220.028C170.025 221.191 164.512 219.043 164.192 218.807C163.872 218.571 163.889 213.679 164.726 212.647" stroke="#74CE01" stroke-width="0.5"/>
<path d="M166.498 223.32C164.655 224.225 159.173 221.483 158.866 221.217C158.558 220.951 159.047 216.269 160.01 215.385" stroke="#74CE01" stroke-width="0.5"/>
<path d="M160.369 226.072C158.252 226.426 153.342 223.531 153.07 223.213C152.797 222.896 153.458 217.023 154.644 216.465" stroke="#74CE01" stroke-width="0.5"/>
<ellipse rx="0.711512" ry="0.554406" transform="matrix(-0.781641 -0.623729 -0.387237 0.92198 180.628 205.866)" fill="#EF8EFF"/>
<ellipse rx="0.711512" ry="0.554406" transform="matrix(-0.781641 -0.623729 -0.387237 0.92198 168.858 208.592)" fill="#EF8EFF"/>
<ellipse rx="0.711512" ry="0.554406" transform="matrix(-0.781641 -0.623729 -0.387237 0.92198 176.043 215.377)" fill="#EF8EFF"/>
<ellipse rx="0.711512" ry="0.554406" transform="matrix(-0.781641 -0.623729 -0.387237 0.92198 171.857 220.087)" fill="#EF8EFF"/>
<ellipse rx="0.711512" ry="0.554406" transform="matrix(-0.781641 -0.623729 -0.387237 0.92198 164.668 212.4)" fill="#EF8EFF"/>
<ellipse rx="0.711512" ry="0.554406" transform="matrix(-0.781641 -0.623729 -0.387237 0.92198 160.05 214.695)" fill="#EF8EFF"/>
<ellipse rx="0.711512" ry="0.554406" transform="matrix(-0.781641 -0.623729 -0.387237 0.92198 165.981 223.254)" fill="#EF8EFF"/>
<ellipse rx="0.711512" ry="0.554406" transform="matrix(-0.781641 -0.623729 -0.387237 0.92198 154.589 216.67)" fill="#EF8EFF"/>
<ellipse rx="0.711512" ry="0.554406" transform="matrix(-0.781641 -0.623729 -0.387237 0.92198 160.524 226.131)" fill="#EF8EFF"/>
<ellipse cx="185.851" cy="59.9862" rx="0.743781" ry="0.584987" transform="rotate(39.2738 185.851 59.9862)" fill="#EF8EFF"/>
<path d="M168.654 71.6166C171.719 68.4556 181.292 62.429 186.324 59.9952C181.593 63.4311 176.104 65.6176 169.148 72.7757C167 74.986 159.725 85.4737 156.844 93.697C156.467 93.7665 156.391 94.8381 155.61 93.4436C155.26 92.8199 164.78 75.6117 168.654 71.6166Z" fill="#74CE01"/>
<ellipse cx="185.932" cy="64.5867" rx="0.743781" ry="0.584987" transform="rotate(39.2738 185.932 64.5867)" fill="#EF8EFF"/>
<ellipse cx="181.818" cy="67.2679" rx="0.743781" ry="0.584987" transform="rotate(39.2738 181.818 67.2679)" fill="#EF8EFF"/>
<ellipse rx="0.720673" ry="0.613229" transform="matrix(0.526304 0.850296 -0.929354 0.36919 176.085 60.5519)" fill="#EF8EFF"/>
<path d="M181.388 58.9816C180.97 60.2767 180.153 62.9592 180.236 63.3287C180.318 63.6981 183.944 64.4722 185.747 64.8131" stroke="#74CE01" stroke-width="0.5"/>
<path d="M175.938 60.9476C175.519 62.2426 175.566 65.6314 175.648 66.0009C175.731 66.3704 179.542 66.918 181.345 67.2589" stroke="#74CE01" stroke-width="0.5"/>
<path d="M170.219 63.8282C169.801 65.1233 169.683 69.8886 169.765 70.2581C169.847 70.6275 174.893 71.4286 176.696 71.7694" stroke="#74CE01" stroke-width="0.5"/>
<path d="M165.097 68.3298C163.616 70.1412 165.012 76.1818 165.21 76.5344C165.408 76.887 170.545 76.9413 171.759 76.0446" stroke="#74CE01" stroke-width="0.5"/>
<path d="M160.832 73.9539C159.596 75.9497 161.621 81.9649 161.853 82.3043C162.084 82.6436 167.074 82.1797 168.152 81.1431" stroke="#74CE01" stroke-width="0.5"/>
<path d="M156.991 80.5929C156.289 82.8955 158.565 88.2906 158.855 88.5921C159.146 88.8936 165.413 88.2608 166.183 86.9761" stroke="#74CE01" stroke-width="0.5"/>
<ellipse rx="0.720673" ry="0.613229" transform="matrix(0.526304 0.850296 -0.929354 0.36919 181.351 58.8124)" fill="#EF8EFF"/>
<ellipse rx="0.720673" ry="0.613229" transform="matrix(0.526304 0.850296 -0.929354 0.36919 176.658 71.6002)" fill="#EF8EFF"/>
<ellipse rx="0.720673" ry="0.613229" transform="matrix(0.526304 0.850296 -0.929354 0.36919 170.655 63.6679)" fill="#EF8EFF"/>
<ellipse rx="0.720673" ry="0.613229" transform="matrix(0.526304 0.850296 -0.929354 0.36919 165.059 68.1605)" fill="#EF8EFF"/>
<ellipse rx="0.720673" ry="0.613229" transform="matrix(0.526304 0.850296 -0.929354 0.36919 172.009 76.1108)" fill="#EF8EFF"/>
<ellipse rx="0.720673" ry="0.613229" transform="matrix(0.526304 0.850296 -0.929354 0.36919 168.882 81.1102)" fill="#EF8EFF"/>
<ellipse rx="0.720673" ry="0.613229" transform="matrix(0.526304 0.850296 -0.929354 0.36919 160.821 74.5185)" fill="#EF8EFF"/>
<ellipse rx="0.720673" ry="0.613229" transform="matrix(0.526304 0.850296 -0.929354 0.36919 165.96 87.0333)" fill="#EF8EFF"/>
<ellipse rx="0.720673" ry="0.613229" transform="matrix(0.526304 0.850296 -0.929354 0.36919 156.953 80.4236)" fill="#EF8EFF"/>
<path d="M123.231 120.233C131.069 117.421 136.668 116.686 137.915 120.979C139.161 125.272 129.311 125.823 123.796 128.627C115.523 132.833 111.584 134.836 102.774 141.193C108.224 133.495 117.951 122.128 123.231 120.233Z" fill="#03C976"/>
<path d="M126.504 106.225C131.372 104.143 134.81 103.489 135.437 106.256C136.064 109.023 130.038 109.689 126.588 111.693C121.411 114.699 118.947 116.13 113.376 120.558C116.939 115.358 123.225 107.627 126.504 106.225Z" fill="#03C976"/>
<path d="M128.062 94.9834C131.383 93.356 133.704 92.7869 134.041 94.7373C134.378 96.6876 130.324 97.3427 127.954 98.8725C124.398 101.167 122.705 102.26 118.842 105.579C121.384 101.771 125.824 96.0799 128.062 94.9834Z" fill="#03C976"/>
<path d="M103.103 117.955C99.6913 110.979 96.2794 106.763 92.1075 108.51C87.9356 110.258 94.507 117.227 96.2753 122.633C98.9279 130.742 100.191 134.604 101.579 144.371C103.604 136.059 105.401 122.654 103.103 117.955Z" fill="#03C976"/>
<path d="M111.672 105.477C108.851 100.143 106.082 96.9764 102.829 98.5236C99.5765 100.071 104.887 105.267 106.384 109.437C108.63 115.692 109.699 118.671 110.981 126.281C112.416 119.67 113.573 109.07 111.672 105.477Z" fill="#03C976"/>
<path d="M118.512 95.2401C117.281 91.4861 115.961 89.3932 114.124 90.9875C112.287 92.5819 114.867 95.9207 115.448 98.9437C116.318 103.478 116.733 105.638 117.01 111.335C118.142 106.07 119.342 97.7692 118.512 95.2401Z" fill="#03C976"/>
<path d="M124.741 84.7483C124.685 82.444 124.386 79.2982 122.354 79.8622C121.172 80.463 120.422 82.6911 120.677 85.8762C121.06 90.6539 122.045 93.0012 121.742 98.8849C123.356 93.6495 124.813 87.683 124.741 84.7483Z" fill="#03C976"/>
<path d="M112.797 123.903C114.123 121.352 120.812 104.577 123.108 94.025C121.251 99.2704 114.701 118.007 111.884 123.428C109.334 128.335 100.489 144.238 100.614 145.113C100.739 145.988 101.299 145.468 101.299 145.468C105.111 138.134 111.471 126.454 112.797 123.903Z" fill="#03C976"/>
<path d="M244.834 212.322C247.52 204.44 250.436 199.604 254.57 201.305C258.704 203.006 252.995 211.052 251.75 217.112C249.882 226.203 248.993 230.532 248.472 241.383C245.849 232.323 243.024 217.632 244.834 212.322Z" fill="#03C976"/>
<path d="M235.92 201.03C237.326 195.927 238.957 192.831 241.512 194.065C244.066 195.3 240.832 200.426 240.248 204.374C239.372 210.295 238.955 213.115 238.945 220.231C237.099 214.203 234.972 204.469 235.92 201.03Z" fill="#03C976"/>
<path d="M228.1 192.806C228.898 189.194 229.9 187.024 231.635 187.977C233.37 188.929 231.355 192.507 231.074 195.314C230.652 199.525 230.451 201.53 230.639 206.619C229.245 202.258 227.563 195.239 228.1 192.806Z" fill="#03C976"/>
<path d="M230.506 226.641C222.924 224.961 217.501 225.001 216.267 229.352C215.033 233.704 224.579 232.909 229.909 234.896C237.903 237.877 241.71 239.296 250.213 244.299C244.975 237.535 235.613 227.774 230.506 226.641Z" fill="#03C976"/>
<path d="M226.09 212.163C220.16 211.044 215.958 211.236 215.141 214.744C214.323 218.251 221.696 217.337 225.89 218.766C232.182 220.909 235.177 221.929 241.928 225.671C237.652 220.428 230.085 212.916 226.09 212.163Z" fill="#03C976"/>
<path d="M222.349 200.433C218.646 199.056 216.186 198.784 216.288 201.214C216.39 203.644 220.609 203.708 223.334 205.138C227.423 207.284 229.37 208.306 233.998 211.64C230.586 207.473 224.843 201.361 222.349 200.433Z" fill="#03C976"/>
<path d="M218.027 189.023C216.19 187.631 213.543 185.904 212.718 187.844C212.451 189.143 213.726 191.118 216.376 192.904C220.35 195.582 222.8 196.275 227.212 200.18C224.124 195.654 220.367 190.796 218.027 189.023Z" fill="#03C976"/>
<path d="M241.199 222.768C240.031 220.142 231.083 204.455 224.263 196.082C227.207 200.803 237.777 217.604 240.26 223.186C242.507 228.239 249.429 245.068 250.191 245.515C250.953 245.963 250.896 245.202 250.896 245.202C247.537 237.649 242.368 225.395 241.199 222.768Z" fill="#03C976"/>
<path d="M226.434 210.39C229.356 211.45 235.426 213.489 236.245 215.155" stroke="#03C976" stroke-width="0.5"/>
<path d="M225.053 210.479L226.065 210.684L226.103 211.596L226.69 210.81L227.701 211.015L227.052 210.325L227.639 209.539L226.651 209.898L226.002 209.208L226.041 210.12L225.053 210.479Z" fill="#FFC633"/>
<path d="M232.719 200.957C233.4 204.985 234.65 213.339 236.204 214.599" stroke="#03C976" stroke-width="0.5"/>
<path d="M232.986 199.109L233.059 200.488L233.962 200.627L233.105 201.341L233.179 202.72L232.575 201.782L231.718 202.496L232.202 201.202L231.598 200.264L232.501 200.403L232.986 199.109Z" fill="#FFC633"/>
<path d="M19.8339 149.322C22.5204 141.44 25.4355 136.604 29.5698 138.305C33.704 140.006 27.9945 148.052 26.7496 154.112C24.8822 163.203 23.993 167.532 23.4719 178.383C20.8494 169.323 18.0239 154.632 19.8339 149.322Z" fill="#03C976"/>
<path d="M10.9196 138.03C12.3262 132.927 13.9572 129.831 16.5117 131.065C19.0663 132.3 15.8316 137.426 15.2477 141.374C14.3719 147.295 13.9549 150.115 13.945 157.231C12.0994 151.203 9.97198 141.469 10.9196 138.03Z" fill="#03C976"/>
<path d="M3.10042 129.806C3.898 126.194 4.89978 124.024 6.6347 124.977C8.36962 125.929 6.35519 129.507 6.07398 132.314C5.65216 136.525 5.45131 138.53 5.63877 143.619C4.24532 139.258 2.56308 132.239 3.10042 129.806Z" fill="#03C976"/>
<path d="M5.50558 163.641C-2.07567 161.961 -7.49908 162.001 -8.73308 166.352C-9.96708 170.704 -0.421087 169.909 4.90851 171.896C12.903 174.877 16.7098 176.296 25.2131 181.299C19.9754 174.535 10.6132 164.774 5.50558 163.641Z" fill="#03C976"/>
<path d="M1.08984 149.163C-4.83963 148.044 -9.04175 148.236 -9.85932 151.744C-10.6769 155.251 -3.30363 154.337 0.890463 155.766C7.18166 157.909 10.1774 158.929 16.9275 162.671C12.6522 157.428 5.08464 149.916 1.08984 149.163Z" fill="#03C976"/>
<path d="M-2.6514 137.433C-6.35412 136.056 -8.81369 135.784 -8.71195 138.214C-8.61021 140.644 -4.39123 140.708 -1.66557 142.138C2.42296 144.284 4.36985 145.306 8.99775 148.64C5.58626 144.473 -0.156804 138.361 -2.6514 137.433Z" fill="#03C976"/>
<path d="M-6.97307 126.023C-8.81023 124.631 -11.4565 122.904 -12.2822 124.844C-12.5489 126.143 -11.274 128.118 -8.62436 129.904C-4.64982 132.582 -2.20009 133.275 2.2116 137.18C-0.875904 132.654 -4.63331 127.796 -6.97307 126.023Z" fill="#03C976"/>
<path d="M16.1994 159.768C15.0309 157.142 6.08336 141.455 -0.73698 133.082C2.20746 137.803 12.7765 154.604 15.2595 160.186C17.507 165.239 24.4291 182.068 25.1912 182.515C25.9533 182.963 25.8961 182.202 25.8961 182.202C22.5369 174.649 17.3678 162.395 16.1994 159.768Z" fill="#03C976"/>
<path d="M1.43399 147.39C4.3559 148.45 10.4257 150.489 11.2452 152.155" stroke="#03C976" stroke-width="0.5"/>
<path d="M0.0532573 147.479L1.06478 147.684L1.10349 148.596L1.68993 147.81L2.70145 148.015L2.05237 147.325L2.63881 146.539L1.65121 146.898L1.00213 146.208L1.04085 147.12L0.0532573 147.479Z" fill="#FFC633"/>
<path d="M7.71909 137.957C8.39997 141.985 9.65043 150.339 11.2037 151.599" stroke="#03C976" stroke-width="0.5"/>
<path d="M7.98551 136.109L8.05929 137.488L8.96228 137.627L8.10488 138.341L8.17865 139.72L7.57498 138.782L6.71758 139.496L7.20188 138.202L6.59821 137.264L7.5012 137.403L7.98551 136.109Z" fill="#FFC633"/>
<path d="M303.1 129.806C303.898 126.194 304.9 124.024 306.635 124.977C308.37 125.929 306.355 129.507 306.074 132.314C305.652 136.525 305.451 138.53 305.639 143.619C304.245 139.258 302.563 132.239 303.1 129.806Z" fill="#03C976"/>
<path d="M305.506 163.641C297.924 161.961 292.501 162.001 291.267 166.352C290.033 170.704 299.579 169.909 304.909 171.896C312.903 174.877 316.71 176.296 325.213 181.299C319.975 174.535 310.613 164.774 305.506 163.641Z" fill="#03C976"/>
<path d="M301.09 149.163C295.16 148.044 290.958 148.236 290.141 151.744C289.323 155.251 296.696 154.337 300.891 155.766C307.182 157.909 310.177 158.929 316.928 162.671C312.652 157.428 305.085 149.916 301.09 149.163Z" fill="#03C976"/>
<path d="M297.349 137.433C293.646 136.056 291.186 135.784 291.288 138.214C291.39 140.644 295.609 140.708 298.334 142.138C302.423 144.284 304.37 145.306 308.998 148.64C305.586 144.473 299.843 138.361 297.349 137.433Z" fill="#03C976"/>
<path d="M293.027 126.023C291.19 124.631 288.543 122.904 287.718 124.844C287.451 126.143 288.726 128.118 291.376 129.904C295.35 132.582 297.8 133.275 302.212 137.18C299.124 132.654 295.367 127.796 293.027 126.023Z" fill="#03C976"/>
<path d="M316.199 159.768C315.031 157.142 306.083 141.455 299.263 133.082C302.208 137.803 312.777 154.604 315.26 160.186C317.507 165.239 324.429 182.068 325.191 182.515C325.953 182.963 325.896 182.202 325.896 182.202C322.537 174.649 317.368 162.395 316.199 159.768Z" fill="#03C976"/>
<path d="M177.138 250.322C174.451 242.44 171.536 237.604 167.402 239.305C163.268 241.006 168.977 249.052 170.222 255.112C172.09 264.203 172.979 268.532 173.5 279.383C176.122 270.323 178.948 255.632 177.138 250.322Z" fill="#03C976"/>
<path d="M186.052 239.03C184.646 233.927 183.015 230.831 180.46 232.065C177.906 233.3 181.14 238.426 181.724 242.374C182.6 248.295 183.017 251.115 183.027 258.231C184.872 252.203 187 242.469 186.052 239.03Z" fill="#03C976"/>
<path d="M193.871 230.806C193.074 227.194 192.072 225.024 190.337 225.977C188.602 226.929 190.617 230.507 190.898 233.314C191.32 237.525 191.52 239.53 191.333 244.619C192.726 240.258 194.409 233.239 193.871 230.806Z" fill="#03C976"/>
<path d="M191.466 264.641C199.047 262.961 204.471 263.001 205.705 267.352C206.939 271.704 197.393 270.909 192.063 272.896C184.069 275.877 180.262 277.296 171.759 282.299C176.996 275.535 186.359 265.774 191.466 264.641Z" fill="#03C976"/>
<path d="M195.882 250.163C201.811 249.044 206.014 249.236 206.831 252.744C207.649 256.251 200.275 255.337 196.081 256.766C189.79 258.909 186.794 259.929 180.044 263.671C184.32 258.428 191.887 250.916 195.882 250.163Z" fill="#03C976"/>
<path d="M199.623 238.433C203.326 237.056 205.785 236.784 205.684 239.214C205.582 241.644 201.363 241.708 198.637 243.138C194.549 245.284 192.602 246.306 187.974 249.64C191.386 245.473 197.129 239.361 199.623 238.433Z" fill="#03C976"/>
<path d="M203.945 227.023C205.782 225.631 208.428 223.904 209.254 225.844C209.521 227.143 208.246 229.118 205.596 230.904C201.622 233.582 199.172 234.275 194.76 238.18C197.848 233.654 201.605 228.796 203.945 227.023Z" fill="#03C976"/>
<path d="M180.772 260.768C181.941 258.142 190.888 242.455 197.709 234.082C194.764 238.803 184.195 255.604 181.712 261.186C179.465 266.239 172.543 283.068 171.781 283.515C171.019 283.963 171.076 283.202 171.076 283.202C174.435 275.649 179.604 263.395 180.772 260.768Z" fill="#03C976"/>
<path d="M195.538 248.39C192.616 249.45 186.546 251.489 185.727 253.155" stroke="#03C976" stroke-width="0.5"/>
<path d="M196.919 248.479L195.907 248.684L195.868 249.596L195.282 248.81L194.27 249.015L194.919 248.325L194.333 247.539L195.321 247.898L195.97 247.208L195.931 248.12L196.919 248.479Z" fill="#FFC633"/>
<path d="M189.253 238.957C188.572 242.985 187.321 251.339 185.768 252.599" stroke="#03C976" stroke-width="0.5"/>
<path d="M188.986 237.109L188.912 238.488L188.009 238.627L188.867 239.341L188.793 240.72L189.397 239.782L190.254 240.496L189.77 239.202L190.374 238.264L189.471 238.403L188.986 237.109Z" fill="#FFC633"/>
<path d="M244.715 297.593C249.376 292.772 258.807 311.103 262.94 320.872C254.535 315.654 239.123 303.692 244.715 297.593Z" fill="#74CE01" fill-opacity="0.7"/>
<path d="M242.639 276.201C247.301 271.38 256.732 289.712 260.865 299.48C252.46 294.262 237.048 282.301 242.639 276.201Z" fill="#74CE01" fill-opacity="0.7"/>
<path d="M283.45 298.362C288.209 302.113 271.228 316.239 262.143 322.833C266.742 312.832 277.443 293.936 283.45 298.362Z" fill="#74CE01" fill-opacity="0.7"/>
<path d="M280.441 285.032C285.2 288.783 268.219 302.909 259.133 309.503C263.733 299.501 274.433 280.606 280.441 285.032Z" fill="#74CE01" fill-opacity="0.7"/>
<path d="M270.604 259.516C276.61 260.708 266.046 280.41 260.014 290.112C260.435 279.399 263.144 258.281 270.604 259.516Z" fill="#74CE01" fill-opacity="0.7"/>
<path d="M263.362 325.077C261.806 320.471 260.33 312.265 260.22 307.524C260.132 303.721 259.494 291.674 261.241 287.774" stroke="#74CE01" stroke-opacity="0.7" stroke-width="2"/>
<path d="M244.715 -2.40671C249.376 -7.22797 258.807 11.1034 262.94 20.8718C254.535 15.6536 239.123 3.69244 244.715 -2.40671Z" fill="#74CE01" fill-opacity="0.7"/>
<path d="M242.639 -23.7985C247.301 -28.6198 256.732 -10.2884 260.865 -0.52007C252.46 -5.73825 237.048 -17.6994 242.639 -23.7985Z" fill="#74CE01" fill-opacity="0.7"/>
<path d="M283.45 -1.63786C288.209 2.11312 271.228 16.2391 262.143 22.8332C266.742 12.832 277.443 -6.06386 283.45 -1.63786Z" fill="#74CE01" fill-opacity="0.7"/>
<path d="M280.441 -14.9684C285.2 -11.2174 268.219 2.90853 259.133 9.50264C263.733 -0.49854 274.433 -19.3944 280.441 -14.9684Z" fill="#74CE01" fill-opacity="0.7"/>
<path d="M263.362 25.0774C261.806 20.4707 260.33 12.2648 260.22 7.52429C260.132 3.72065 259.494 -8.32584 261.241 -12.226" stroke="#74CE01" stroke-opacity="0.7" stroke-width="2"/>
<circle cx="34.8049" cy="256.805" r="0.934955" fill="#3253FF"/>
<path d="M34.0245 254.918C33.9532 255.469 34.4983 256.007 34.7767 256.23C35.254 256.105 35.7668 255.704 35.8382 255.153C35.9096 254.602 35.7305 254.206 35.0503 254.117C34.3702 254.029 34.0959 254.367 34.0245 254.918Z" fill="#3253FF"/>
<path d="M34.6957 258.977C34.9242 258.47 34.5507 257.794 34.3449 257.498C33.8458 257.476 33.2325 257.707 33.0041 258.214C32.7756 258.72 32.8348 259.153 33.4691 259.44C34.1035 259.726 34.4673 259.483 34.6957 258.977Z" fill="#3253FF"/>
<path d="M36.6206 255.558C35.966 255.661 35.5167 256.36 35.3466 256.702C35.6369 257.129 36.2545 257.504 36.9091 257.402C37.5636 257.299 37.964 257.001 37.8558 256.309C37.7476 255.618 37.2752 255.456 36.6206 255.558Z" fill="#3253FF"/>
<path d="M32.8961 256.997C33.4337 257.235 34.0815 256.982 34.3605 256.835C34.3311 256.418 34.0328 255.881 33.4952 255.643C32.9575 255.405 32.5242 255.416 32.2995 255.924C32.0749 256.432 32.3584 256.76 32.8961 256.997Z" fill="#3253FF"/>
<path d="M36.5276 258.175C36.2234 257.672 35.5475 257.508 35.2349 257.468C35.0194 257.827 34.956 258.438 35.2602 258.941C35.5643 259.444 35.9255 259.684 36.4008 259.397C36.8761 259.109 36.8317 258.678 36.5276 258.175Z" fill="#3253FF"/>
<circle cx="40.8049" cy="268.805" r="0.934955" fill="#3253FF"/>
<path d="M40.0245 266.918C39.9532 267.469 40.4983 268.007 40.7767 268.23C41.254 268.105 41.7668 267.704 41.8382 267.153C41.9096 266.602 41.7305 266.206 41.0503 266.117C40.3702 266.029 40.0959 266.367 40.0245 266.918Z" fill="#3253FF"/>
<path d="M40.6957 270.977C40.9242 270.47 40.5507 269.794 40.3449 269.498C39.8458 269.476 39.2325 269.707 39.0041 270.214C38.7756 270.72 38.8348 271.153 39.4691 271.44C40.1035 271.726 40.4673 271.483 40.6957 270.977Z" fill="#3253FF"/>
<path d="M42.6206 267.558C41.966 267.661 41.5167 268.36 41.3466 268.702C41.6369 269.129 42.2545 269.504 42.9091 269.402C43.5636 269.299 43.964 269.001 43.8558 268.309C43.7476 267.618 43.2752 267.456 42.6206 267.558Z" fill="#3253FF"/>
<path d="M38.8961 268.997C39.4337 269.235 40.0815 268.982 40.3605 268.835C40.3311 268.418 40.0328 267.881 39.4952 267.643C38.9575 267.405 38.5242 267.416 38.2995 267.924C38.0749 268.432 38.3584 268.76 38.8961 268.997Z" fill="#3253FF"/>
<path d="M42.5276 270.175C42.2234 269.672 41.5475 269.508 41.2349 269.468C41.0194 269.827 40.956 270.438 41.2602 270.941C41.5643 271.444 41.9255 271.684 42.4008 271.397C42.8761 271.109 42.8317 270.678 42.5276 270.175Z" fill="#3253FF"/>
<circle cx="40.8049" cy="279.805" r="0.934955" fill="#3253FF"/>
<path d="M40.0245 277.918C39.9532 278.469 40.4983 279.007 40.7767 279.23C41.254 279.105 41.7668 278.704 41.8382 278.153C41.9096 277.602 41.7305 277.206 41.0503 277.117C40.3702 277.029 40.0959 277.367 40.0245 277.918Z" fill="#3253FF"/>
<path d="M40.6957 281.977C40.9242 281.47 40.5507 280.794 40.3449 280.498C39.8458 280.476 39.2325 280.707 39.0041 281.214C38.7756 281.72 38.8348 282.153 39.4691 282.44C40.1035 282.726 40.4673 282.483 40.6957 281.977Z" fill="#3253FF"/>
<path d="M42.6206 278.558C41.966 278.661 41.5167 279.36 41.3466 279.702C41.6369 280.129 42.2545 280.504 42.9091 280.402C43.5636 280.299 43.964 280.001 43.8558 279.309C43.7476 278.618 43.2752 278.456 42.6206 278.558Z" fill="#3253FF"/>
<path d="M38.8961 279.997C39.4337 280.235 40.0815 279.982 40.3605 279.835C40.3311 279.418 40.0328 278.881 39.4952 278.643C38.9575 278.405 38.5242 278.416 38.2995 278.924C38.0749 279.432 38.3584 279.76 38.8961 279.997Z" fill="#3253FF"/>
<path d="M42.5276 281.175C42.2234 280.672 41.5475 280.508 41.2349 280.468C41.0194 280.827 40.956 281.438 41.2602 281.941C41.5643 282.444 41.9255 282.684 42.4008 282.397C42.8761 282.109 42.8317 281.678 42.5276 281.175Z" fill="#3253FF"/>
<circle cx="22.5" cy="197.5" r="1.5" fill="#3253FF"/>
<path d="M21.2481 194.473C21.1336 195.357 22.0081 196.22 22.4549 196.577C23.2205 196.377 24.0434 195.734 24.1579 194.85C24.2724 193.966 23.985 193.33 22.8938 193.188C21.8027 193.047 21.3626 193.589 21.2481 194.473Z" fill="#3253FF"/>
<path d="M22.3249 200.985C22.6915 200.172 22.0922 199.087 21.7621 198.612C20.9614 198.577 19.9774 198.948 19.6109 199.761C19.2444 200.573 19.3393 201.268 20.357 201.727C21.3748 202.186 21.9584 201.797 22.3249 200.985Z" fill="#3253FF"/>
<path d="M25.413 195.5C24.3629 195.664 23.642 196.787 23.3691 197.335C23.8348 198.019 24.8257 198.622 25.8758 198.458C26.926 198.293 27.5683 197.814 27.3947 196.705C27.2212 195.596 26.4632 195.335 25.413 195.5Z" fill="#3253FF"/>
<path d="M19.4376 197.809C20.3002 198.19 21.3394 197.784 21.7872 197.549C21.7399 196.879 21.2614 196.017 20.3988 195.636C19.5362 195.254 18.841 195.272 18.4806 196.087C18.1201 196.901 18.5751 197.427 19.4376 197.809Z" fill="#3253FF"/>
<path d="M25.2639 199.698C24.7759 198.891 23.6915 198.628 23.1899 198.564C22.8442 199.14 22.7425 200.12 23.2304 200.927C23.7184 201.735 24.2979 202.119 25.0604 201.658C25.823 201.197 25.7518 200.505 25.2639 199.698Z" fill="#3253FF"/>
<circle cx="109.461" cy="163.725" r="1.5" transform="rotate(-37.3655 109.461 163.725)" fill="#3253FF"/>
<path d="M106.63 162.079C107.075 162.851 108.293 163.006 108.865 163.019C109.352 162.395 109.616 161.385 109.171 160.613C108.725 159.841 108.111 159.509 107.158 160.059C106.205 160.609 106.184 161.307 106.63 162.079Z" fill="#3253FF"/>
<path d="M111.437 166.601C111.235 165.732 110.1 165.234 109.55 165.057C108.892 165.514 108.335 166.407 108.537 167.275C108.739 168.143 109.236 168.638 110.324 168.385C111.411 168.132 111.639 167.469 111.437 166.601Z" fill="#3253FF"/>
<path d="M110.563 160.367C109.828 161.135 109.936 162.465 110.052 163.066C110.838 163.328 111.991 163.205 112.726 162.437C113.461 161.669 113.68 160.898 112.869 160.122C112.058 159.346 111.298 159.599 110.563 160.367Z" fill="#3253FF"/>
<path d="M107.215 165.829C108.132 165.609 108.711 164.655 108.925 164.196C108.48 163.692 107.577 163.298 106.66 163.518C105.743 163.739 105.201 164.174 105.409 165.041C105.617 165.907 106.298 166.049 107.215 165.829Z" fill="#3253FF"/>
<path d="M112.992 163.794C112.114 163.449 111.093 163.898 110.655 164.152C110.73 164.82 111.244 165.66 112.122 166.006C113 166.351 113.694 166.305 114.02 165.476C114.346 164.646 113.87 164.14 112.992 163.794Z" fill="#3253FF"/>
<circle cx="278.525" cy="215.446" r="1.89212" transform="rotate(0.339845 278.525 215.446)" fill="#3253FF"/>
<path d="M276.968 211.619C276.817 212.733 277.914 213.827 278.475 214.282C279.442 214.034 280.485 213.23 280.636 212.116C280.787 211.002 280.429 210.197 279.054 210.01C277.679 209.824 277.119 210.505 276.968 211.619Z" fill="#3253FF"/>
<path d="M278.278 219.84C278.746 218.818 277.999 217.445 277.586 216.843C276.576 216.793 275.332 217.254 274.864 218.276C274.395 219.298 274.51 220.175 275.79 220.762C277.07 221.349 277.81 220.863 278.278 219.84Z" fill="#3253FF"/>
<path d="M282.214 212.945C280.888 213.144 279.971 214.555 279.622 215.244C280.205 216.111 281.45 216.879 282.776 216.679C284.102 216.48 284.916 215.88 284.705 214.48C284.494 213.079 283.54 212.745 282.214 212.945Z" fill="#3253FF"/>
<path d="M274.66 215.813C275.745 216.3 277.059 215.796 277.625 215.503C277.571 214.657 276.974 213.567 275.888 213.079C274.803 212.591 273.926 212.608 273.465 213.633C273.005 214.658 273.574 215.325 274.66 215.813Z" fill="#3253FF"/>
<path d="M281.995 218.239C281.385 217.218 280.019 216.878 279.387 216.793C278.947 217.518 278.811 218.753 279.421 219.775C280.03 220.797 280.758 221.286 281.723 220.71C282.689 220.134 282.604 219.261 281.995 218.239Z" fill="#3253FF"/>
<circle cx="232.812" cy="26.5868" r="1.89212" transform="rotate(20.6436 232.812 26.5868)" fill="#3253FF"/>
<path d="M232.68 22.4574C232.152 23.45 232.801 24.8568 233.169 25.4775C234.162 25.5813 235.419 25.1889 235.947 24.1963C236.476 23.2037 236.419 22.3246 235.194 21.6725C233.969 21.0204 233.209 21.4648 232.68 22.4574Z" fill="#3253FF"/>
<path d="M231.056 30.6225C231.85 29.8264 231.625 28.2789 231.446 27.5714C230.517 27.1738 229.19 27.1743 228.396 27.9704C227.602 28.7666 227.405 29.6289 228.403 30.6234C229.4 31.618 230.262 31.4187 231.056 30.6225Z" fill="#3253FF"/>
<path d="M237.14 25.5212C235.827 25.2481 234.477 26.253 233.911 26.7782C234.157 27.7936 235.058 28.9454 236.371 29.2185C237.684 29.4916 238.655 29.2115 238.943 27.825C239.232 26.4385 238.453 25.7943 237.14 25.5212Z" fill="#3253FF"/>
<path d="M229.06 25.5896C229.908 26.4236 231.316 26.406 231.949 26.3277C232.191 25.5153 232.009 24.2859 231.161 23.452C230.312 22.618 229.484 22.3292 228.696 23.1309C227.908 23.9325 228.211 24.7557 229.06 25.5896Z" fill="#3253FF"/>
<path d="M235.097 30.4107C234.88 29.2409 233.717 28.4484 233.153 28.1496C232.489 28.6762 231.933 29.7877 232.15 30.9575C232.367 32.1273 232.88 32.8388 233.985 32.6338C235.09 32.4287 235.314 31.5805 235.097 30.4107Z" fill="#3253FF"/>
<circle cx="83.9098" cy="10.2271" r="1.67573" transform="rotate(20.6436 83.9098 10.2271)" fill="#3253FF"/>
<path d="M83.7931 6.56996C83.3253 7.44904 83.8999 8.69495 84.2261 9.24465C85.1055 9.33663 86.2188 8.98907 86.6866 8.11C87.1545 7.23092 87.1048 6.45236 86.0197 5.87485C84.9346 5.29733 84.261 5.69088 83.7931 6.56996Z" fill="#3253FF"/>
<path d="M82.3543 13.8013C83.0575 13.0962 82.8585 11.7256 82.7004 11.0991C81.8772 10.747 80.7024 10.7474 79.9992 11.4525C79.296 12.1576 79.1216 12.9213 80.0047 13.8021C80.8879 14.6829 81.6511 14.5064 82.3543 13.8013Z" fill="#3253FF"/>
<path d="M87.743 9.28337C86.5804 9.04153 85.3845 9.93149 84.8835 10.3966C85.1007 11.2959 85.8992 12.316 87.0618 12.5578C88.2244 12.7997 89.0846 12.5516 89.3401 11.3237C89.5955 10.0957 88.9056 9.52521 87.743 9.28337Z" fill="#3253FF"/>
<path d="M80.5867 9.34398C81.3382 10.0826 82.5847 10.067 83.1453 9.99768C83.36 9.27818 83.1989 8.18938 82.4474 7.45079C81.6959 6.71219 80.9623 6.45644 80.2646 7.16639C79.5668 7.87634 79.8352 8.60539 80.5867 9.34398Z" fill="#3253FF"/>
<path d="M85.9335 13.6137C85.7412 12.5777 84.7111 11.8758 84.212 11.6111C83.6236 12.0775 83.1313 13.062 83.3235 14.098C83.5157 15.134 83.9701 15.7641 84.9489 15.5825C85.9276 15.4009 86.1257 14.6497 85.9335 13.6137Z" fill="#3253FF"/>
<circle cx="12.4639" cy="98.3131" r="1.89212" transform="rotate(20.6436 12.4639 98.3131)" fill="#3253FF"/>
<path d="M12.3322 94.1837C11.8039 95.1763 12.4527 96.5831 12.8211 97.2038C13.814 97.3077 15.071 96.9152 15.5993 95.9226C16.1276 94.93 16.0714 94.0509 14.8463 93.3989C13.6211 92.7468 12.8605 93.1911 12.3322 94.1837Z" fill="#3253FF"/>
<path d="M10.7076 102.349C11.5016 101.553 11.2768 100.005 11.0983 99.2978C10.1688 98.9001 8.84231 98.9006 8.04829 99.6968C7.25427 100.493 7.05733 101.355 8.05455 102.35C9.05178 103.344 9.91353 103.145 10.7076 102.349Z" fill="#3253FF"/>
<path d="M16.7921 97.2475C15.4793 96.9745 14.129 97.9793 13.5633 98.5045C13.8086 99.5199 14.7102 100.672 16.0229 100.945C17.3357 101.218 18.307 100.938 18.5954 99.5513C18.8838 98.1648 18.1048 97.5206 16.7921 97.2475Z" fill="#3253FF"/>
<path d="M8.71172 97.316C9.56025 98.15 10.9677 98.1324 11.6007 98.0541C11.8431 97.2417 11.6612 96.0123 10.8127 95.1783C9.96415 94.3443 9.13584 94.0556 8.34797 94.8572C7.56011 95.6588 7.86318 96.482 8.71172 97.316Z" fill="#3253FF"/>
<path d="M14.7489 102.137C14.5318 100.967 13.3686 100.175 12.8051 99.8759C12.1407 100.403 11.5848 101.514 11.8019 102.684C12.0189 103.854 12.532 104.565 13.6371 104.36C14.7423 104.155 14.9659 103.307 14.7489 102.137Z" fill="#3253FF"/>
</g>
<defs>
<clipPath id="clip0">
<rect width="300" height="300" fill="white"/>
</clipPath>
</defs>
</svg>
